<svg xmlns="http://www.w3.org/2000/svg" width="73" height="75" viewBox="0 0 73 75">
    <g fill="none" fill-rule="evenodd" stroke="#9CDF21" stroke-width="2" transform="translate(2 1)">
        <path fill="#FFF" d="M0 48.964l24.776-16.27c5.67-.247 8.751-1.85 9.244-4.808.74-4.437-2.958-2.218-2.958-3.697 0-1.48 2.588-4.068 2.588-8.875 0-4.808-11.833-8.505-11.833-12.943 0-3.344 14.505-3.712 20.338 2.589 9.245 9.984-1.73 4.015 0 6.656 2.85 4.348 8.402 1.908 13.313 3.698 7.2 2.624 13.682 8.845 13.682 13.682 0 1.479-5.547 0-8.505 4.807-2.959 4.807 2.859 6.205 1.479 8.505-1.11 1.849-3.698-1.849-4.807-.37-1.599 2.131 1.479 6.656-.74 8.135-2.219 1.48-8.072-1.083-9.245 1.85-.74 1.848 2.589 4.807 1.11 6.655-1.965 2.456-8.114-.528-9.984 2.589-1.11 1.849 2.218 2.958 1.109 4.807-1.11 1.849-3.328-.74-6.656 1.849C30.398 69.777 31.06 73 29.213 73c-1.849 0-2.247-10.21-5.917-9.614C14.176 64.865 6.41 60.058 0 48.964z"/>
        <path fill="#CCF354" d="M7.53 35.5C6.058 33.5 4 30.321 4 27c0-6.627 5.373-12 12-12s12 5.373 12 12c0 3.321-2.059 6.5-3.53 8.5-.851 1.158-3.094 4.958-6.728 11.4a2 2 0 0 1-3.484 0c-3.634-6.442-5.877-10.242-6.729-11.4z"/>
        <circle cx="16" cy="27" r="5" fill="#FFF"/>
    </g>
</svg>
