<svg xmlns="http://www.w3.org/2000/svg" xmlnsXlink="http://www.w3.org/1999/xlink" width="51" height="55" viewBox="0 0 51 55">
            <defs>
                <path id="a" d="M17.258 15h14.119c7.03 0 12.787 5.59 12.994 12.618l.215 7.299A18 18 0 0 1 30.704 52.97C27.778 53.657 25.71 54 24.5 54c-1.24 0-3.453-.36-6.638-1.08A18 18 0 0 1 3.864 34.305l.416-7.07C4.684 20.367 10.375 15 17.258 15z"/>
            </defs>
            <g fill="none" fill-rule="evenodd" transform="translate(1 1)">
                <circle cx="8" cy="31" r="8" fill="#FFF" stroke="#70E06E" stroke-width="2"/>
                <circle cx="41" cy="32" r="8" fill="#FFF" stroke="#70E06E" stroke-width="2"/>
                <path fill="#CCF354" stroke="#70E06E" stroke-width="2" d="M4.5 33.5C2.5 22.5 2.333 15 4 11 6.5 5 21.5 0 24.5 0s16.5 5.5 20 11c2.333 3.667 2.167 11.167-.5 22.5"/>
                <use fill="#FFF" xlinkHref="#a"/>
                <path stroke="#70E06E" stroke-width="2" d="M17.258 16a12 12 0 0 0-11.98 11.295l-.415 7.07a17 17 0 0 0 13.22 17.579C21.198 52.649 23.355 53 24.5 53c1.112 0 3.12-.333 5.976-1.003a17 17 0 0 0 13.11-17.05l-.214-7.3C43.18 21.16 37.867 16 31.377 16h-14.12z"/>
                <path stroke="#70E06E" stroke-width="2" d="M9 26c1-1.333 2-2 3-2 1.667 0 4.333.5 8 1.5M39 26c-1-1.333-2-2-3-2-1.667 0-4.333.5-8 1.5"/>
                <path stroke="#70E06E" stroke-linecap="round" stroke-width="2" d="M10 30c2-.667 3.333-1 4-1 1.333 0 2.667.333 4 1M38 30c-2-.667-3.333-1-4-1-1.333 0-2.667.333-4 1"/>
                <path stroke="#70E06E" stroke-linecap="round" stroke-linejoin="round" stroke-width="2" d="M20.5 34.5c0 1 .333 1.667 1 2 .667.333 2.5.333 5.5 0M17 42c3.546-.333 6.212-.5 8-.5 1.768 0 4.435.167 8 .5-1 2.667-3.667 6-8 6-3.5 0-6.016-1.07-7-2.5"/>
                <path stroke="#70E06E" stroke-linecap="round" stroke-width="2" d="M15 30v1M33 30v1"/>
            </g>
        </svg>


