<svg xmlns="http://www.w3.org/2000/svg" xmlns:xlink="http://www.w3.org/1999/xlink" width="204" height="90" viewBox="0 0 204 90">
    <defs>
        <path id="a" d="M25 23.5c17.28 0 26.123 6.793 26.533 20.38A4 4 0 0 1 47.534 48H2.466a4 4 0 0 1-3.999-4.12C-1.123 30.293 7.721 23.5 25 23.5z"/>
        <path id="b" d="M25 0c12.086 0 18.435 12.586 19.046 37.757.134 5.521-4.233 10.106-9.754 10.24a10 10 0 0 1-.243.003H15.95c-5.523 0-10-4.477-10-10a10 10 0 0 1 .003-.243C6.565 12.586 12.914 0 25 0z"/>
    </defs>
    <g fill="none" fill-rule="evenodd">
        <path fill="#FFF" d="M177.876 90H.725A25.176 25.176 0 0 1 0 83.986c0-13.84 11.193-25.06 25-25.06 3.674 0 7.164.794 10.306 2.221C39.062 48.835 50.488 39.88 64 39.88c16.569 0 30 13.464 30 30.072 0 3.26-.517 6.397-1.474 9.336 10.634-6.571 21.625-19.373 32.974-38.406C148.833 22.84 153.333 25.345 139 48.4c-9.537 15.341-13.527 26.91-11.967 34.706 1.869-4.207 6.076-7.14 10.967-7.14 3.964 0 7.48 1.927 9.665 4.898 2.618-5.28 8.054-8.907 14.335-8.907 8.837 0 16 7.18 16 16.038 0 .68-.042 1.348-.124 2.005zM25 50.004a5 5 0 1 1 0-10 5 5 0 0 1 0 10zM49 32a4 4 0 1 1 0-8 4 4 0 0 1 0 8zm134 42.015a3 3 0 1 1 .001-6 3 3 0 0 1-.001 6zM196 85a8 8 0 1 1 0-16 8 8 0 0 1 0 16z"/>
        <g transform="rotate(30 85.76 245.418)">
            <use fill="#CCF354" xlink:href="#a"/>
            <path stroke="#55E19E" stroke-width="2" d="M25 24.5C8.218 24.5-.142 30.92-.533 43.91l-.001.09a3 3 0 0 0 3 3h45.068l.09-.001a3 3 0 0 0 2.909-3.09C50.142 30.922 41.783 24.5 25 24.5z"/>
            <use fill="#FFF" xlink:href="#b"/>
            <path stroke="#55E19E" stroke-width="2" d="M25 1C13.65 1 7.554 13.086 6.954 37.781A9 9 0 0 0 15.95 47H34.05a9 9 0 0 0 8.997-9.219C42.446 13.086 36.35 1 25 1z"/>
            <path fill="#55E19E" stroke="#CCF354" stroke-width="2" d="M26.68 66.493C29.56 62.039 31 58.875 31 57a6 6 0 1 0-12 0c0 1.875 1.44 5.039 4.32 9.493a2 2 0 0 0 3.36 0z"/>
            <path fill="#FFF" d="M25 61c1.105 0 2-3.895 2-5a2 2 0 1 0-4 0c0 1.105.895 5 2 5z"/>
            <circle cx="25" cy="19" r="8" fill="#CCF354" stroke="#55E19E" stroke-width="2"/>
            <circle cx="25" cy="19" r="4" fill="#FFF" stroke="#55E19E" stroke-width="2"/>
        </g>
    </g>
</svg>
